# xmcd
#
# Track frame offsets:
#	150
#	12403
#	26758
#	40345
#	53797
#	70686
#	87492
#	100766
#	116115
#	127769
#	149283
#
# Disc length: 2232 seconds
#
# Revision: 0
# Processed by: cddbd v1.5.2PL0 Copyright (c) Steve Scherf et al.
# Submitted via: EasyCDDAExtractor 8.2.3.1
#
DISCID=9208b60b
DTITLE=Dwight Yoakam - If There Was A Way
DYEAR=1990
DGENRE=Country
TTITLE0=The Distance Between You And Me
TTITLE1=The Heart That You Own
TTITLE2=Takes A Lot To Rock You
TTITLE3=Nothing's Changed Here
TTITLE4=Sad  Sad Music
TTITLE5=Since I Started Drinkin' Again
TTITLE6=There Was A Way
TTITLE7=Turn It On  Turn It Up  Turn Me Loose
TTITLE8=It Only Hurts When I Cry
TTITLE9=Send A Message To My Heart 
TTITLE10=Let's Work Together
EXTD=
EXTT0=
EXTT1=
EXTT2=
EXTT3=
EXTT4=
EXTT5=
EXTT6=
EXTT7=
EXTT8=
EXTT9=
EXTT10=
PLAYORDER=
